<?xml version="1.0" standalone="no"?>
<!DOCTYPE svg PUBLIC "-//W3C//DTD SVG 20010904//EN"
 "http://www.w3.org/TR/2001/REC-SVG-20010904/DTD/svg10.dtd">
<svg version="1.0" xmlns="http://www.w3.org/2000/svg"
 width="600.000000pt" height="481.000000pt" viewBox="0 0 600.000000 481.000000"
 preserveAspectRatio="xMidYMid meet">
<g transform="translate(0.000000,481.000000) scale(0.100000,-0.100000)"
fill="#000000" stroke="none">
<path d="M2777 4580 c-49 -9 -65 -16 -56 -25 3 -2 23 1 45 7 54 17 462 17 529
0 28 -7 71 -13 96 -15 26 -1 52 -8 59 -16 11 -11 10 -12 -6 -8 -106 31 -446
48 -604 30 -128 -15 -324 -50 -355 -63 -11 -5 -58 -21 -105 -36 -73 -23 -153
-56 -260 -107 -113 -53 -359 -220 -440 -299 -86 -83 -131 -120 -137 -114 -4 4
8 20 27 36 19 17 29 30 23 30 -13 0 -123 -109 -123 -122 0 -5 5 -8 10 -8 6 0
10 7 10 15 0 8 7 15 15 15 8 0 15 7 15 15 0 8 5 15 10 15 17 0 11 -13 -18 -45
-15 -16 -39 -46 -54 -67 -15 -20 -34 -43 -42 -50 -8 -8 -31 -41 -52 -74 -20
-32 -40 -61 -43 -64 -3 -3 -15 -21 -25 -40 -11 -19 -22 -37 -26 -40 -3 -3 -21
-36 -40 -75 -25 -49 -36 -64 -39 -50 -2 10 2 21 8 23 6 2 11 11 11 21 0 9 4
21 9 27 6 5 24 35 41 67 17 32 44 77 61 99 35 50 38 75 3 33 -28 -34 -65 -97
-139 -240 -222 -426 -280 -956 -159 -1447 42 -168 150 -436 214 -528 10 -14
35 -52 56 -85 71 -112 151 -210 261 -320 120 -121 123 -124 238 -210 144 -108
308 -200 460 -259 39 -15 79 -31 90 -36 157 -67 549 -127 760 -116 117 7 339
37 400 56 17 5 66 18 110 30 44 12 89 25 100 30 11 5 52 21 90 36 125 48 376
184 406 220 6 8 17 14 24 14 8 0 15 3 17 8 2 4 37 34 78 67 152 121 328 315
426 469 26 39 54 82 63 96 25 36 106 205 142 297 161 401 182 899 58 1338 -11
39 -24 79 -29 90 -5 11 -20 52 -35 90 -70 187 -210 421 -341 571 -133 153
-274 276 -449 393 -131 87 -351 197 -445 220 -25 7 -54 16 -65 21 -64 27 -204
58 -365 80 -80 11 -447 11 -513 0z m773 -72 c10 -6 4 -8 -19 -4 -18 3 -40 6
-47 6 -8 0 -14 4 -14 10 0 11 57 2 80 -12z m-239 -23 c253 -37 475 -115 709
-249 25 -14 52 -29 60 -33 8 -3 25 -14 36 -22 12 -9 32 -23 44 -31 86 -58 245
-200 341 -305 239 -263 425 -648 479 -995 35 -220 35 -389 2 -640 -11 -80 -50
-244 -68 -287 -8 -17 -14 -36 -14 -43 0 -12 -19 -59 -47 -116 -9 -17 -14 -37
-11 -45 3 -8 11 1 21 24 42 93 47 106 47 114 0 5 7 18 15 29 15 19 15 19 9 -1
-25 -83 -71 -185 -84 -185 -6 0 -8 -4 -5 -10 3 -5 0 -8 -7 -5 -12 5 -58 -66
-58 -88 0 -5 -11 -23 -25 -41 -14 -18 -23 -35 -20 -38 3 -3 -4 -13 -15 -23
-11 -10 -20 -24 -20 -31 0 -7 -4 -14 -8 -16 -9 -3 -52 -72 -52 -82 0 -3 5 -6
10 -6 6 0 10 5 10 10 0 6 8 23 19 38 63 92 91 139 91 150 0 6 5 12 10 12 6 0
10 -5 10 -11 0 -14 -32 -73 -42 -77 -5 -2 -8 -10 -8 -18 0 -8 -7 -17 -15 -20
-8 -4 -15 -12 -15 -19 0 -8 -6 -20 -13 -27 -6 -7 -24 -31 -38 -53 -15 -22 -37
-51 -50 -66 -13 -14 -36 -41 -51 -61 -31 -41 -173 -188 -181 -188 -4 0 -17
-10 -29 -22 -63 -60 -194 -160 -243 -184 -16 -8 -55 -30 -85 -49 -30 -19 -62
-37 -70 -41 -8 -4 -48 -22 -88 -41 -40 -18 -76 -33 -80 -33 -4 0 -19 -6 -33
-14 -28 -14 -137 -49 -244 -76 -181 -47 -407 -65 -635 -50 -109 8 -280 35
-315 50 -11 5 -30 12 -43 15 -49 14 -13 14 40 0 131 -34 256 -47 453 -49 187
-2 328 6 250 14 -16 2 -39 3 -50 2 -283 -16 -585 22 -815 103 -193 68 -423
192 -563 305 -124 99 -333 313 -371 379 -5 9 -28 41 -50 71 -23 30 -47 65 -54
78 -131 233 -207 420 -251 617 -55 246 -53 610 4 864 16 70 51 192 65 226 100
239 178 380 296 535 271 356 667 614 1112 724 35 9 116 23 180 31 64 8 131 16
147 19 54 8 299 -3 406 -19z m324 -5 c2 -4 -7 -5 -20 -2 -14 2 -27 8 -30 12
-2 4 7 5 20 2 14 -2 27 -8 30 -12z m95 -25 c16 -9 19 -14 10 -15 -9 0 -20 4
-25 9 -6 5 -19 11 -30 14 l-20 5 20 0 c11 1 31 -5 45 -13z m78 -36 c-2 -6 -8
-10 -13 -10 -5 0 -11 4 -13 10 -2 6 4 11 13 11 9 0 15 -5 13 -11z m108 -44
c10 -8 14 -15 7 -15 -19 0 -43 11 -43 21 0 13 14 11 36 -6z m60 -48 c7 3 17
-2 20 -11 3 -9 12 -16 20 -16 8 0 14 -4 14 -10 0 -5 -7 -10 -15 -10 -8 0 -15
4 -15 9 0 5 -11 12 -25 15 -15 4 -25 13 -24 24 0 9 3 12 5 5 3 -7 12 -9 20 -6z
m104 -57 c0 -4 -7 -10 -15 -14 -10 -4 -15 1 -15 14 0 13 5 18 15 14 8 -4 15
-10 15 -14z m69 -37 c17 -10 31 -21 31 -25 0 -5 6 -8 13 -8 8 0 24 -9 37 -20
13 -11 27 -20 32 -20 5 0 7 -4 3 -9 -3 -5 13 -20 34 -33 22 -13 60 -42 83 -64
23 -21 46 -38 50 -37 5 2 8 -3 8 -10 0 -6 16 -27 35 -44 19 -18 35 -37 35 -43
0 -5 6 -10 14 -10 8 0 17 -9 21 -19 3 -11 13 -22 21 -25 8 -3 13 -10 9 -15 -3
-5 4 -12 15 -16 11 -3 20 -12 20 -18 1 -7 19 -30 40 -52 22 -22 40 -45 40 -52
0 -7 5 -13 10 -13 6 0 10 -7 10 -15 0 -8 5 -15 10 -15 6 0 10 -6 10 -14 0 -8
7 -21 15 -30 9 -8 14 -17 13 -18 -2 -2 10 -20 26 -41 16 -20 29 -48 29 -62 0
-14 3 -22 8 -19 5 3 18 -17 31 -43 12 -26 25 -50 29 -53 4 -3 12 -25 19 -50 7
-25 15 -49 20 -55 4 -5 11 -24 15 -42 3 -18 15 -51 27 -74 11 -23 18 -52 15
-65 -2 -13 0 -25 5 -26 9 -3 18 -41 21 -90 1 -15 5 -28 8 -28 6 0 14 -24 25
-75 3 -11 7 -45 10 -75 2 -30 7 -66 10 -79 3 -14 4 -90 3 -170 -1 -80 -1 -163
0 -184 1 -21 -2 -45 -7 -53 -5 -9 -9 53 -10 148 -2 159 -4 194 -17 328 -6 59
-16 108 -32 150 -3 8 -6 26 -7 40 0 14 -5 31 -9 38 -5 7 -10 22 -12 35 -2 12
-6 34 -9 49 -2 14 -11 37 -19 50 -8 12 -20 46 -28 73 -7 28 -19 56 -26 63 -12
13 -17 33 -14 60 1 6 -3 12 -9 12 -5 0 -10 6 -10 14 0 8 -3 16 -7 18 -5 2 -24
34 -43 73 -19 38 -43 78 -52 89 -10 11 -18 25 -18 32 0 7 -7 20 -16 28 -8 9
-13 16 -9 16 3 0 0 7 -7 15 -27 32 -34 41 -62 80 -17 22 -36 44 -43 48 -7 4
-13 13 -13 19 0 6 -17 28 -39 49 -21 21 -37 40 -35 42 4 4 -134 137 -142 137
-8 0 -54 53 -54 62 0 5 -4 7 -9 3 -6 -3 -20 5 -33 18 -13 13 -39 34 -58 47
-19 13 -38 29 -42 35 -4 5 -8 6 -8 2 0 -4 -15 3 -33 17 -19 14 -37 23 -42 18
-5 -4 -5 -1 -1 6 10 17 29 15 65 -5z m-3010 -954 c-24 -62 -44 -108 -46 -102
-5 13 77 226 84 219 3 -3 -14 -55 -38 -117z m-59 -173 c0 -21 -6 -36 -15 -40
-13 -4 -13 -2 -5 14 5 10 10 28 10 39 0 12 2 21 5 21 3 0 5 -15 5 -34z m-50
-210 c0 -8 -4 -18 -10 -21 -5 -3 -10 3 -10 14 0 12 5 21 10 21 6 0 10 -6 10
-14z m-7 -253 c-8 -53 -22 -77 -23 -38 0 38 10 75 21 75 4 0 5 -17 2 -37z
m-14 -202 c-5 -25 -7 -10 -7 49 1 72 2 78 7 36 4 -27 4 -66 0 -85z m16 -120
c-5 -32 -9 -40 -16 -30 -12 20 -11 57 4 98 l12 35 3 -29 c2 -16 1 -49 -3 -74z
m10 -51 c-3 -11 -2 -20 3 -20 5 0 9 -17 8 -37 -1 -21 4 -60 11 -88 18 -66 25
-97 26 -112 0 -7 4 -13 9 -13 5 0 6 -11 2 -25 -3 -14 -2 -25 2 -25 5 0 18 -28
29 -62 10 -35 22 -65 25 -68 11 -10 30 -61 30 -80 0 -11 4 -20 8 -20 5 0 17
-19 27 -42 9 -24 23 -55 31 -70 8 -14 14 -32 14 -40 0 -8 12 -25 26 -39 15
-14 23 -31 20 -42 -3 -13 0 -17 10 -13 8 3 15 1 15 -4 1 -6 2 -15 3 -20 0 -6
13 -26 29 -44 15 -19 27 -40 27 -45 0 -6 7 -11 16 -11 8 0 12 -4 9 -10 -3 -5
-1 -10 4 -10 6 0 11 -6 11 -13 0 -7 9 -23 21 -35 11 -12 17 -27 13 -34 -5 -7
-11 -5 -20 7 -8 10 -24 30 -36 44 -41 47 -78 99 -78 110 0 6 -4 11 -8 11 -5 0
-16 15 -25 33 -10 17 -28 52 -42 76 -14 24 -25 50 -25 57 0 7 -3 14 -7 16 -8
3 -40 66 -82 158 -11 25 -22 60 -25 78 -2 18 -9 39 -15 46 -6 7 -12 21 -14 32
-2 10 -7 26 -10 34 -19 46 -47 186 -47 234 0 31 -4 56 -10 56 -14 0 -13 18 3
35 17 20 19 18 12 -5z m3987 -88 c-5 -26 -5 -26 -15 -5 -11 26 -1 65 12 45 4
-8 6 -25 3 -40z m-34 -134 c-3 -7 -13 -37 -23 -66 -9 -29 -19 -52 -21 -50 -6
7 30 128 39 128 5 0 7 -6 5 -12z m-165 -438 c-15 -34 -33 -52 -33 -35 0 16 44
97 48 87 2 -7 -5 -30 -15 -52z m-3327 -375 c9 -8 13 -15 9 -15 -3 0 21 -27 53
-60 33 -33 64 -60 71 -60 6 0 11 -6 11 -13 0 -15 61 -73 72 -70 4 2 10 -6 13
-17 4 -11 13 -20 21 -20 8 0 14 -7 14 -16 0 -8 4 -13 9 -9 5 3 21 -5 35 -17
47 -43 61 -54 94 -67 17 -7 32 -18 32 -23 0 -5 18 -17 40 -27 22 -10 37 -21
33 -24 -3 -4 3 -7 15 -7 12 0 22 -2 22 -4 0 -2 3 -11 6 -20 4 -11 0 -14 -16
-11 -13 2 -25 7 -29 11 -3 4 2 4 12 1 9 -4 17 -3 17 2 0 5 -16 12 -35 15 -19
4 -35 11 -35 16 0 6 -3 9 -7 8 -5 -2 -10 1 -13 7 -3 5 -25 20 -50 33 -25 13
-48 29 -52 36 -4 6 -8 7 -8 1 0 -5 -5 -2 -11 8 -5 9 -16 17 -24 17 -8 0 -12 6
-9 14 3 9 -4 16 -21 20 -14 4 -43 23 -65 44 -21 20 -59 55 -84 77 -25 22 -44
45 -41 52 2 7 -2 10 -11 6 -10 -4 -17 2 -21 16 -3 11 -11 21 -19 21 -7 0 -19
10 -25 23 -7 12 -18 25 -25 30 -7 4 -11 14 -8 22 8 19 12 19 30 0z m594 -485
c0 -3 20 -14 45 -24 25 -11 45 -23 45 -28 0 -14 -40 -9 -46 7 -4 8 -10 12 -15
9 -5 -3 -9 0 -9 6 0 7 -6 10 -12 8 -7 -3 -18 1 -25 8 -17 16 -16 21 2 21 8 0
15 -3 15 -7z m122 -57 c-6 -2 -10 -9 -6 -14 3 -5 -2 -9 -12 -9 -13 0 -14 3 -4
15 7 8 18 15 24 14 7 0 6 -2 -2 -6z m96 -28 c-8 -8 -77 -9 -85 -2 -3 4 15 7
42 7 27 0 46 -2 43 -5z m42 -37 c-16 -6 -26 -5 -28 1 -2 5 -11 7 -20 4 -12 -3
-13 -2 -4 4 7 5 27 7 44 5 32 -5 32 -5 8 -14z m100 -18 c0 -5 -4 -10 -9 -10
-5 0 -17 -3 -27 -7 -16 -6 -17 -5 -4 10 17 18 40 22 40 7z"/>
<path d="M3045 4346 c-3 -9 -23 -337 -21 -343 1 0 12 -3 26 -5 21 -2 24 1 21
17 -4 19 -5 55 -2 110 2 39 28 30 52 -17 42 -82 70 -117 101 -123 41 -9 47 2
17 28 -37 32 -81 96 -74 107 3 6 17 10 31 10 14 0 36 11 50 25 20 20 24 33 23
75 -2 44 -7 55 -36 80 -19 17 -44 30 -56 31 -12 0 -46 4 -75 8 -36 5 -55 4
-57 -3z m161 -68 c20 -20 21 -75 2 -95 -10 -9 -38 -16 -74 -17 l-59 -3 3 70 4
69 54 -4 c30 -3 62 -12 70 -20z"/>
<path d="M2821 4339 c-91 -12 -91 -11 -81 -56 5 -21 14 -96 20 -168 7 -71 15
-133 18 -137 4 -4 25 -3 47 2 22 5 57 10 77 10 52 0 67 8 60 32 -5 19 -10 20
-61 13 -96 -13 -93 -14 -96 25 -1 19 -5 49 -9 65 -3 17 -4 26 -1 20 3 -6 34
-8 77 -5 74 5 90 16 69 48 -7 12 -19 12 -67 2 -33 -7 -64 -16 -70 -21 -8 -6
-13 8 -18 47 -3 30 -4 59 -1 64 3 4 37 11 76 15 64 7 70 9 67 29 -4 25 -19 27
-107 15z"/>
<path d="M2573 4302 c-13 -8 -12 -15 12 -229 3 -24 0 -43 -5 -43 -5 0 -30 32
-56 70 -25 39 -52 70 -59 70 -7 0 -16 16 -19 35 -8 41 -23 53 -42 33 -11 -11
-12 -21 -6 -39 15 -39 25 -239 13 -239 -6 0 -11 4 -11 8 0 5 -24 45 -52 88
-29 44 -59 91 -67 107 -15 28 -27 33 -50 18 -11 -7 10 -42 94 -160 59 -83 113
-151 121 -151 23 0 28 29 10 49 -13 14 -14 21 -5 26 11 8 8 76 -7 153 -11 55
17 38 71 -44 28 -42 56 -87 63 -100 14 -25 20 -28 46 -18 21 8 20 16 -4 44
-11 12 -17 27 -13 33 4 6 9 3 14 -9 4 -10 5 8 2 41 -6 66 -8 107 -11 203 -2
62 -10 73 -39 54z"/>
<path d="M3645 4234 c-5 -1 -22 -5 -37 -8 -37 -8 -85 -51 -108 -97 -41 -79
-15 -174 62 -229 34 -25 50 -30 99 -30 62 0 109 15 109 35 0 17 -57 27 -80 15
-52 -28 -131 12 -156 76 -26 70 6 140 81 176 43 21 48 21 87 8 30 -11 51 -27
70 -57 26 -38 62 -62 74 -50 7 6 -18 57 -28 57 -4 0 -8 6 -8 13 0 37 -120 104
-165 91z"/>
<path d="M1961 4009 c-55 -39 -74 -86 -69 -161 8 -104 86 -172 190 -166 67 5
117 38 148 98 21 41 28 136 10 125 -5 -3 -10 1 -10 11 0 27 -39 82 -74 103
-24 15 -50 21 -93 21 -51 0 -66 -5 -102 -31z m165 -25 c46 -22 77 -75 76 -131
0 -37 -6 -51 -33 -79 -19 -19 -47 -38 -64 -43 -77 -20 -178 43 -176 110 1 67
21 115 53 125 10 3 18 9 18 14 0 22 82 25 126 4z"/>
<path d="M3948 4014 c-112 -59 -143 -207 -61 -289 37 -36 95 -65 132 -65 42 0
111 33 146 69 25 27 30 41 33 99 3 61 1 71 -27 114 -48 75 -153 109 -223 72z
m143 -49 c64 -34 87 -120 49 -183 -59 -96 -198 -94 -245 5 -21 43 -19 72 8
116 44 72 120 97 188 62z"/>
<path d="M2965 3833 c-68 -3 -248 -33 -241 -41 3 -2 43 1 88 9 102 16 355 17
423 1 28 -6 64 -14 80 -18 54 -12 8 -16 -52 -4 -114 21 -291 24 -413 6 -247
-36 -502 -159 -688 -334 -18 -17 -36 -32 -41 -34 -9 -3 -51 -54 -123 -150 -44
-58 -87 -92 -49 -39 12 16 21 34 21 39 0 6 3 12 8 14 4 2 25 26 47 53 22 28
43 52 48 53 4 2 7 8 7 14 0 18 -39 -23 -94 -97 -79 -107 -146 -222 -146 -249
0 -9 -4 -16 -8 -16 -5 0 -14 -16 -20 -36 -8 -28 -8 -36 4 -41 15 -6 20 -33 5
-33 -5 0 -12 -10 -14 -22 -3 -16 -5 -12 -6 12 l-2 35 -13 -30 c-42 -97 -68
-340 -55 -518 29 -402 250 -767 601 -990 171 -109 348 -170 553 -192 28 -3 70
-8 95 -11 76 -8 316 23 429 56 242 71 484 233 642 430 120 150 186 283 259
525 49 161 31 567 -30 710 -5 11 -12 31 -15 45 -10 35 -73 165 -109 225 -64
105 -160 223 -232 285 -76 65 -135 110 -143 110 -5 0 -11 3 -13 8 -4 9 -128
82 -178 104 -199 90 -402 129 -625 121z m218 -103 c91 -11 215 -39 262 -59 45
-20 211 -102 230 -114 11 -6 59 -42 106 -79 97 -76 167 -148 234 -242 44 -63
75 -88 75 -63 0 12 -12 31 -85 139 -14 21 -36 45 -50 54 -14 9 -25 21 -25 28
0 6 -12 20 -27 31 -15 11 -37 30 -49 43 -12 12 -26 22 -33 22 -6 0 -11 6 -11
13 0 7 -15 21 -32 32 -18 10 -35 21 -38 24 -3 3 -23 16 -45 28 -22 12 -41 26
-43 32 -6 17 34 13 48 -4 7 -8 16 -15 21 -15 4 0 20 -11 35 -25 15 -14 33 -25
41 -25 8 0 11 -5 8 -11 -4 -6 2 -13 14 -16 12 -3 21 -9 21 -14 0 -5 5 -9 11
-9 14 0 39 -25 39 -39 0 -6 3 -10 8 -10 18 3 32 -2 32 -11 0 -6 15 -25 33 -43
44 -42 78 -92 69 -101 -4 -4 -2 -6 3 -4 6 2 11 -1 12 -5 1 -5 13 -18 27 -31
14 -12 26 -27 26 -33 0 -7 9 -18 20 -26 14 -10 18 -20 14 -32 -6 -14 -4 -16 6
-10 8 5 11 4 7 -2 -4 -6 0 -17 9 -24 20 -17 46 -78 37 -92 -3 -5 -1 -7 5 -3 6
3 13 -6 17 -24 4 -16 11 -32 16 -35 5 -4 9 -16 9 -28 0 -12 7 -35 15 -51 9
-16 16 -54 18 -85 1 -31 6 -59 11 -62 10 -8 15 -309 4 -309 -4 0 -8 65 -10
145 -2 86 1 145 6 145 6 0 2 6 -8 13 -10 8 -19 30 -22 56 -2 23 -13 63 -24 87
-10 25 -22 60 -26 79 -3 19 -12 39 -20 46 -8 6 -14 17 -14 24 0 6 -9 20 -20
30 -11 10 -18 20 -16 24 2 3 -2 12 -9 18 -11 10 -15 9 -18 -5 -4 -14 -5 -13
-6 4 0 11 4 25 10 31 7 7 7 13 1 17 -5 3 -12 -5 -16 -17 -4 -16 -26 -33 -71
-56 -36 -18 -65 -37 -65 -42 0 -5 -5 -9 -12 -9 -12 0 -159 -70 -168 -80 -8 -8
-43 -29 -67 -39 -11 -6 -24 -15 -28 -21 -3 -5 -10 -8 -15 -5 -5 3 -12 0 -17
-7 -9 -15 -77 -48 -98 -48 -8 0 -15 -5 -15 -11 0 -17 -65 -4 -93 18 -13 10
-22 24 -19 31 2 6 -7 16 -20 21 -12 6 -18 10 -11 10 7 1 10 7 7 15 -6 15 17
28 33 18 8 -6 24 -35 27 -52 5 -20 25 -42 35 -36 14 9 14 39 0 53 -14 14 -35
50 -50 86 -15 37 -39 35 -39 -4 0 -27 -3 -30 -27 -27 -16 2 -27 8 -26 15 2 7
-4 10 -12 7 -22 -9 -20 -14 31 -93 37 -56 50 -69 60 -60 10 8 15 5 20 -15 9
-39 2 -49 -67 -84 -35 -18 -91 -48 -124 -67 -33 -19 -84 -46 -112 -61 -29 -15
-53 -31 -53 -35 0 -20 -62 -20 -101 0 -49 26 -70 27 -38 3 31 -24 77 -39 110
-36 25 2 26 1 15 -22 -6 -13 -13 -24 -16 -24 -3 0 -5 -90 -5 -200 0 -110 -2
-200 -6 -200 -3 0 -1 -27 5 -59 9 -58 10 -59 23 -34 10 19 13 86 13 264 0 158
4 239 10 239 9 0 130 66 301 165 30 17 68 35 85 40 l29 7 -40 18 c-22 10 -34
19 -27 19 6 1 12 14 12 29 0 39 8 44 38 24 15 -9 23 -12 19 -6 -4 7 4 14 21
17 36 7 46 -1 27 -20 -24 -23 -7 -98 33 -145 12 -14 12 -21 2 -33 -18 -21 -40
-19 -40 5 0 11 -4 20 -9 20 -5 0 -14 14 -21 30 -12 28 -40 42 -40 20 0 -14 59
-128 70 -135 5 -3 32 6 60 20 l50 25 -19 28 c-59 85 -81 126 -73 134 4 4 24
16 43 26 42 23 293 168 334 193 17 10 37 22 45 26 8 4 37 20 63 36 26 16 49
28 51 26 8 -10 29 -54 36 -78 5 -14 18 -51 30 -81 88 -230 76 -608 -26 -828
-9 -19 -13 -36 -10 -39 8 -8 10 -6 40 57 14 30 24 44 21 30 -7 -28 -13 -43
-46 -115 -13 -27 -24 -52 -25 -55 -3 -16 -33 -73 -34 -65 0 6 -8 -5 -17 -24
-20 -41 -58 -83 -66 -75 -3 3 5 18 19 32 26 28 30 42 14 42 -5 0 -10 -4 -10
-9 0 -5 -6 -16 -13 -23 -7 -7 -21 -26 -31 -43 -16 -24 -16 -27 -3 -16 35 28
18 -15 -23 -59 -22 -24 -40 -45 -40 -46 0 -7 -126 -121 -158 -142 -20 -14 -39
-29 -42 -32 -8 -11 -88 -56 -175 -99 -112 -55 -288 -105 -399 -115 -33 -3 -62
-9 -65 -15 -4 -5 -15 -8 -26 -6 -11 2 -31 4 -45 5 -24 1 -24 1 -6 15 10 8 23
12 27 9 5 -3 9 -2 9 3 0 4 15 8 32 8 110 2 156 7 172 18 15 11 4 12 -68 2 -47
-6 -88 -9 -91 -7 -3 3 -5 138 -5 300 l0 294 91 -3 92 -4 2 58 c2 64 -10 73
-41 32 -17 -22 -26 -25 -89 -26 -38 0 -64 -3 -57 -6 6 -2 12 -10 12 -16 0 -5
-3 -7 -6 -4 -4 4 -15 -8 -24 -26 -15 -28 -18 -65 -19 -262 0 -127 -3 -247 -5
-267 -3 -28 -1 -38 10 -38 27 0 13 -25 -25 -43 -30 -15 -54 -18 -117 -14 -91
4 -214 28 -214 40 0 5 8 6 18 3 70 -21 195 -36 207 -24 3 3 -16 9 -42 12 -134
19 -301 70 -393 119 -30 17 -68 37 -85 46 -16 8 -34 18 -40 23 -194 152 -285
245 -373 383 -49 78 -119 241 -146 340 -48 180 -45 449 8 635 17 59 19 65 59
152 l27 58 44 -30 c24 -17 47 -30 51 -30 4 0 19 -9 34 -19 31 -22 361 -211
369 -211 3 0 13 -7 23 -16 11 -10 23 -13 33 -7 20 11 10 24 -49 58 -27 17 -59
35 -70 42 -11 7 -30 17 -42 22 -11 5 -24 15 -28 20 -3 6 -15 11 -26 11 -11 0
-17 4 -14 10 3 6 -1 7 -9 4 -9 -3 -16 -2 -16 4 0 5 -13 15 -29 22 -16 6 -32
18 -35 27 -3 8 -10 12 -15 9 -5 -3 -14 1 -21 9 -7 8 -20 15 -30 15 -9 0 -27 9
-40 20 -13 11 -27 20 -31 20 -5 0 -6 7 -3 15 9 22 29 18 47 -7 l15 -23 -5 28
c-4 19 -12 27 -27 29 -30 2 -37 1 -78 -7 -33 -6 -38 -5 -38 12 0 33 97 165
197 268 61 63 158 147 177 154 6 2 25 14 41 26 35 27 171 96 235 120 86 33
170 54 262 64 169 20 142 20 311 1z m386 -39 c21 -6 22 -8 7 -20 -10 -9 -16
-10 -16 -2 0 6 -13 11 -30 11 -16 0 -30 5 -30 10 0 11 32 12 69 1z m51 -41 c0
-11 5 -20 12 -20 6 0 9 -3 6 -6 -9 -8 -48 19 -48 33 0 7 7 13 15 13 8 0 15 -9
15 -20z m-1705 -507 c-40 -88 -80 -162 -83 -153 -5 13 88 203 95 196 3 -3 -2
-22 -12 -43z m-119 -331 c-13 -12 -17 8 -10 40 l9 33 3 -33 c2 -19 1 -36 -2
-40z m-11 -122 c-4 -23 -9 -39 -11 -37 -3 2 -2 23 2 46 4 23 9 40 11 37 3 -3
2 -23 -2 -46z m-8 -160 c-4 -60 -2 -102 4 -105 5 -4 7 -10 4 -15 -3 -5 0 -28
6 -52 6 -24 11 -56 12 -73 1 -16 6 -36 10 -42 5 -7 10 -21 12 -30 6 -33 38
-128 47 -139 4 -6 9 -23 10 -37 1 -14 7 -25 12 -24 6 1 11 -2 11 -8 1 -5 5
-18 9 -27 5 -10 6 -24 3 -32 -3 -8 4 -18 18 -24 13 -6 33 -31 44 -56 11 -26
25 -46 31 -46 6 0 8 -5 5 -11 -4 -5 14 -30 39 -55 25 -24 46 -48 46 -52 0 -4
18 -25 40 -46 22 -21 40 -42 40 -47 0 -6 4 -8 8 -5 5 3 15 -4 22 -15 8 -10 20
-19 27 -19 7 0 13 -6 13 -14 0 -7 10 -21 23 -29 19 -14 20 -16 4 -16 -10 -1
-24 5 -31 12 -8 6 -35 30 -62 52 -26 22 -55 48 -63 59 -9 10 -40 43 -68 72
-29 30 -53 59 -53 64 0 5 -6 15 -13 22 -19 20 -47 66 -47 78 0 6 -11 23 -25
38 -14 15 -28 38 -32 52 -3 14 -9 30 -13 35 -4 6 -13 26 -20 45 -7 19 -18 49
-25 65 -21 53 -44 138 -40 146 3 4 0 20 -6 36 -14 33 -27 203 -16 203 4 0 7
32 7 70 0 39 3 70 7 70 3 0 3 -45 0 -100z m2473 -322 c-1 -7 -8 -24 -16 -38
-8 -14 -13 -17 -10 -7 3 10 6 27 6 38 0 10 5 19 10 19 6 0 10 -6 10 -12z
m-1923 -710 c15 -19 23 -48 15 -48 -15 0 -52 41 -47 51 8 13 21 11 32 -3z m93
-59 c22 -12 43 -25 46 -30 3 -5 10 -7 15 -4 5 3 6 -2 2 -11 -4 -12 -3 -15 5
-10 7 4 12 2 12 -3 0 -14 -17 -14 -25 -1 -3 6 -15 10 -26 10 -11 0 -18 4 -15
9 6 9 -21 24 -32 17 -4 -2 -13 2 -20 10 -7 8 -9 14 -5 14 4 0 1 5 -7 10 -29
19 9 10 50 -11z m123 -79 c4 0 5 5 2 10 -3 6 1 10 10 10 9 0 14 -4 10 -9 -3
-6 3 -15 12 -21 16 -10 15 -11 -7 -6 -14 3 -30 6 -36 6 -7 0 -15 8 -19 18 -5
14 -4 15 6 5 7 -7 17 -13 22 -13z m127 -20 c20 -6 17 -8 -17 -6 -23 1 -45 5
-49 9 -9 9 34 7 66 -3z"/>
<path d="M3020 3679 c-9 -16 -9 -23 0 -29 6 -4 10 -22 8 -41 -3 -31 -5 -34
-34 -32 -18 2 -37 -3 -43 -11 -10 -12 -4 -18 34 -35 l47 -21 41 21 c23 12 43
23 45 24 2 2 -11 25 -27 53 -17 27 -31 54 -31 59 0 6 -6 16 -14 22 -12 10 -17
8 -26 -10z"/>
<path d="M2901 3468 c-8 -18 -19 -36 -25 -40 -6 -4 -7 -10 -3 -15 5 -4 11 -3
15 3 35 52 42 58 54 46 8 -8 5 -21 -16 -52 -15 -23 -25 -48 -23 -55 3 -7 0
-12 -6 -12 -48 1 -77 -5 -77 -16 0 -16 90 -61 101 -50 4 4 18 29 32 55 14 26
34 60 46 76 29 41 27 55 -6 48 -16 -3 -22 -3 -15 1 10 4 5 11 -15 24 -38 26
-46 24 -62 -13z"/>
<path d="M3129 3493 c-1 -5 0 -18 1 -31 2 -29 -25 -39 -49 -18 -46 42 -38 -7
15 -85 20 -30 40 -64 45 -77 l9 -22 50 27 c27 16 50 31 50 36 0 4 -10 24 -23
45 -12 20 -34 58 -47 85 -22 41 -48 62 -51 40z m53 -122 c-2 -2 2 -8 10 -12
10 -7 10 -9 0 -9 -7 0 -10 -4 -7 -10 3 -5 -3 -10 -15 -10 -15 0 -25 10 -33 30
-6 17 -16 30 -21 30 -5 0 -1 9 9 20 17 19 18 19 39 -8 11 -14 19 -28 18 -31z"/>
<path d="M2852 3383 c-17 -30 -15 -37 4 -19 8 9 14 22 11 29 -2 7 -8 4 -15
-10z"/>
<path d="M2782 3261 c-17 -10 -4 -41 14 -34 26 10 2 -63 -28 -85 -10 -8 -17
-21 -16 -30 2 -13 -5 -17 -27 -17 -59 0 -72 -26 -22 -45 17 -8 39 -20 49 -27
15 -13 20 -8 54 54 20 37 48 83 61 101 25 33 23 52 -4 52 -8 0 -27 9 -42 19
-15 11 -32 16 -39 12z"/>
<path d="M3262 3233 c2 -21 -2 -29 -16 -31 -10 -2 -22 1 -26 8 -4 7 -15 10
-24 8 -13 -2 -6 -21 40 -98 31 -52 58 -97 60 -99 4 -5 93 39 99 49 3 4 -2 13
-10 20 -8 7 -15 18 -15 25 0 6 -13 30 -30 53 -16 22 -32 52 -36 66 -9 38 -47
36 -42 -1z m35 -60 c4 -10 16 -30 26 -45 17 -22 18 -30 7 -43 -19 -23 -40 -18
-40 10 0 14 -4 25 -10 25 -5 0 -10 6 -10 14 0 8 -5 16 -11 18 -15 5 0 38 17
38 8 0 18 -8 21 -17z"/>
<path d="M2750 3201 c-12 -24 -13 -31 -1 -31 5 0 11 11 13 25 6 30 2 32 -12 6z"/>
<path d="M2020 3158 c1 -21 28 -50 40 -43 6 4 26 -5 45 -19 18 -14 38 -26 44
-26 6 0 11 -4 11 -8 0 -4 17 -14 38 -21 20 -7 63 -28 95 -47 32 -19 62 -34 67
-34 5 0 10 -3 12 -7 2 -5 29 -21 60 -37 32 -15 55 -32 52 -37 -3 -5 2 -6 12
-2 14 5 15 3 5 -15 -12 -23 0 -30 16 -9 15 19 10 37 -13 50 -12 7 -62 34 -110
61 -49 27 -109 61 -134 77 -25 15 -57 31 -72 34 -16 4 -28 11 -28 15 0 4 -8
10 -17 14 -23 7 -83 42 -97 56 -14 14 -26 13 -26 -2z"/>
<path d="M3888 3076 c-8 -7 -30 -19 -51 -27 -20 -7 -37 -17 -37 -21 0 -10 27
-11 32 0 2 4 28 19 58 34 36 19 48 28 33 28 -12 0 -28 -6 -35 -14z"/>
<path d="M2150 3011 c0 -6 10 -11 23 -11 12 0 42 -9 66 -20 50 -23 51 -23 51
-10 0 6 -9 10 -20 10 -11 0 -20 4 -20 9 0 5 -15 12 -32 16 -18 4 -41 9 -50 11
-10 3 -18 1 -18 -5z"/>
<path d="M2636 3013 c-13 -13 -6 -45 8 -40 25 10 27 -24 2 -56 -13 -18 -31
-49 -41 -69 -18 -40 -35 -47 -55 -24 -6 8 -18 12 -26 9 -12 -4 -12 -8 3 -19
24 -18 58 -17 73 1 18 22 26 19 40 -16 10 -22 15 -27 21 -17 6 9 11 10 17 2 4
-6 17 -16 30 -23 24 -13 30 -40 10 -42 -7 -1 -2 -4 12 -9 14 -4 37 -5 51 -3
18 3 28 0 32 -11 4 -9 13 -16 22 -16 8 0 15 -9 15 -20 0 -11 6 -19 13 -18 6 2
11 -2 10 -7 -1 -7 13 -9 35 -7 30 3 35 2 25 -9 -17 -18 -16 -29 3 -29 8 0 12
5 9 10 -3 6 3 10 14 10 11 0 23 -4 26 -10 7 -12 45 -14 45 -2 0 5 -19 16 -42
27 -24 10 -45 21 -48 25 -3 4 -21 15 -40 25 -19 10 -66 36 -105 59 -38 23 -83
48 -99 56 -16 8 -31 20 -33 27 -3 7 14 40 36 75 42 61 46 88 15 88 -9 0 -28 9
-44 20 -15 11 -30 17 -34 13z"/>
<path d="M3718 2980 c-27 -17 -53 -30 -59 -30 -5 0 -8 -4 -4 -9 5 -9 88 32
113 56 23 22 -1 14 -50 -17z"/>
<path d="M2604 2945 c-3 -14 -10 -25 -15 -25 -5 0 -9 -8 -9 -17 1 -17 1 -17
11 0 6 9 14 15 18 13 4 -3 8 8 8 24 0 37 -5 38 -13 5z"/>
<path d="M3590 2910 c-14 -11 -22 -20 -19 -20 9 0 69 31 69 36 0 10 -27 2 -50
-16z"/>
<path d="M3290 2735 c-7 -8 -16 -12 -21 -9 -5 3 -9 0 -9 -5 0 -6 3 -11 8 -11
12 1 58 40 46 40 -6 0 -17 -7 -24 -15z"/>
<path d="M2552 2732 c-7 -2 -10 -8 -6 -13 3 -5 -1 -9 -9 -9 -8 0 -28 -23 -46
-51 -26 -42 -35 -50 -53 -46 -21 6 -48 -7 -48 -22 0 -13 101 -54 110 -45 5 5
22 36 39 69 17 33 34 66 39 73 6 9 31 0 98 -39 49 -29 134 -77 189 -108 l100
-56 -2 -228 c-1 -148 1 -227 8 -227 6 0 7 -5 3 -12 -4 -7 -3 -8 4 -4 7 4 12
17 12 29 0 18 4 15 19 -13 33 -61 18 -70 -107 -70 l-107 1 24 20 c27 22 25 27
-10 31 -23 3 -24 1 -24 -56 l0 -60 89 0 89 -1 -1 -260 c0 -273 3 -324 20 -307
6 6 10 55 9 116 -1 64 2 106 8 106 5 0 12 -10 14 -22 3 -17 5 -14 6 9 1 25 -2
31 -14 27 -13 -5 -15 7 -15 75 0 67 2 79 15 75 9 -4 15 0 15 10 0 9 -7 16 -15
16 -12 0 -15 17 -16 85 -1 47 -2 91 -3 98 -1 6 11 20 26 29 27 17 41 68 18 68
-5 0 -10 11 -10 25 0 16 -6 25 -15 25 -10 0 -15 11 -15 35 0 25 4 35 16 35 9
0 14 6 11 13 -2 6 -10 11 -16 9 -9 -2 -12 40 -10 165 l2 167 -26 22 c-17 15
-22 24 -14 27 7 3 0 6 -15 6 -14 1 -40 12 -56 26 -17 14 -35 25 -42 25 -6 0
-31 13 -55 30 -24 16 -54 34 -67 40 -13 6 -38 19 -56 30 -18 11 -38 18 -43 15
-5 -4 -9 -2 -9 3 0 11 -39 21 -58 14z"/>
<path d="M3200 2685 c-25 -13 -38 -24 -30 -25 16 0 80 36 80 45 0 7 1 7 -50
-20z"/>
<path d="M3686 2505 c-7 -34 -28 -47 -41 -25 -9 14 -35 12 -35 -3 0 -6 16 -34
35 -61 19 -27 35 -55 35 -63 0 -7 5 -13 10 -13 6 0 10 -6 10 -14 0 -26 20 -28
65 -6 43 21 56 42 35 55 -5 3 -20 27 -33 53 -37 72 -61 112 -68 112 -4 0 -10
-16 -13 -35z m68 -116 c15 -25 15 -27 -3 -32 -25 -6 -32 0 -56 48 -29 59 -29
58 -16 51 6 -4 11 -1 11 6 0 14 38 -29 64 -73z"/>
<path d="M2343 2503 c-19 -40 -16 -46 10 -23 19 19 22 19 25 5 2 -9 -7 -38
-20 -63 -21 -41 -30 -48 -66 -56 -48 -10 -50 -25 -7 -39 17 -6 36 -16 43 -24
7 -7 15 -13 18 -13 2 0 25 36 50 80 26 45 51 83 56 86 13 8 9 34 -6 34 -7 0
-25 9 -39 20 -34 27 -50 25 -64 -7z"/>
<path d="M2297 2415 c-19 -41 -21 -49 -8 -40 9 5 41 62 41 72 0 1 -4 3 -8 3
-5 0 -16 -16 -25 -35z"/>
<path d="M3010 2370 c0 -19 3 -21 12 -12 9 9 9 15 0 24 -9 9 -12 7 -12 -12z"/>
<path d="M3010 2288 c0 -49 5 -47 13 5 3 20 2 37 -4 37 -5 0 -9 -19 -9 -42z"/>
<path d="M2207 2264 c-21 -28 -17 -40 8 -30 10 3 13 11 9 18 -5 10 -4 10 6 1
15 -14 7 -55 -15 -77 -8 -8 -15 -19 -15 -24 0 -17 -42 -47 -68 -47 -44 0 -35
-23 20 -49 29 -14 53 -24 53 -23 7 19 61 116 71 128 8 8 14 20 14 26 0 6 7 16
15 23 25 21 17 36 -27 55 -24 10 -45 20 -48 21 -3 2 -13 -8 -23 -22z"/>
<path d="M3826 2261 c8 -37 -10 -47 -42 -26 -29 19 -43 12 -28 -13 6 -9 22
-37 36 -62 38 -68 70 -120 73 -120 3 0 99 42 103 45 2 2 -17 34 -41 71 -24 38
-52 84 -61 102 -21 41 -48 44 -40 3z m57 -97 c15 -25 27 -49 27 -55 0 -21 -40
-7 -60 21 -12 17 -18 30 -15 30 4 0 -1 7 -10 16 -13 14 -14 19 -3 25 23 15 32
9 61 -37z"/>
<path d="M2166 2191 c-11 -12 -16 -24 -13 -27 8 -9 39 24 35 37 -2 6 -12 1
-22 -10z"/>
<path d="M3980 2030 c-12 -7 -12 -12 -2 -22 11 -11 18 -58 8 -58 -20 0 -56 22
-56 35 0 8 -4 15 -10 15 -5 0 -10 -24 -10 -54 l0 -55 70 6 c49 4 74 2 85 -7 9
-7 19 -9 23 -5 4 4 2 10 -5 12 -6 2 -24 28 -39 56 -40 78 -48 87 -64 77z"/>
<path d="M2064 2015 c-7 -17 4 -37 16 -30 5 3 12 1 15 -5 8 -13 -14 -42 -26
-34 -5 3 -9 0 -9 -6 0 -7 -6 -10 -14 -7 -8 3 -20 -1 -26 -8 -17 -21 4 -27 75
-23 l58 3 1 43 c1 32 -3 42 -15 42 -9 0 -24 9 -34 20 -21 24 -34 25 -41 5z"/>
<path d="M2228 2013 c-14 -3 -17 -16 -17 -65 l1 -60 30 6 c17 3 68 6 115 6
l84 0 -3 55 c-3 60 -16 72 -35 34 -10 -20 -22 -25 -70 -29 -46 -5 -61 -2 -75
12 -20 20 -25 43 -6 32 7 -4 8 -3 4 4 -4 7 -8 11 -9 11 -1 -1 -10 -3 -19 -6z"/>
<path d="M2504 2005 c-7 -18 1 -110 9 -107 4 1 53 2 110 2 l102 0 -1 53 c-2
71 -2 71 -17 58 -8 -6 -17 -8 -20 -4 -4 3 -7 -6 -7 -20 l0 -27 -80 0 c-48 0
-80 4 -80 10 0 14 15 19 85 23 32 2 60 8 62 13 4 12 -159 11 -163 -1z"/>
<path d="M3346 2013 c-3 -3 -6 -31 -6 -62 l0 -56 115 0 115 0 0 58 c0 44 -3
57 -15 57 -9 0 -20 -11 -25 -25 -9 -24 -14 -25 -85 -25 -73 0 -75 1 -75 24 0
26 -12 40 -24 29z"/>
<path d="M4122 1976 c-15 -34 -19 -53 -12 -60 7 -7 10 -4 10 10 0 11 7 30 16
42 8 12 14 30 12 40 -3 11 -12 0 -26 -32z"/>
<path d="M2320 2000 c0 -5 6 -10 14 -10 8 0 18 5 21 10 3 6 -3 10 -14 10 -12
0 -21 -4 -21 -10z"/>
<path d="M3180 2000 c0 -5 7 -10 15 -10 8 0 15 5 15 10 0 6 -7 10 -15 10 -8 0
-15 -4 -15 -10z"/>
<path d="M3450 2000 c0 -5 7 -10 15 -10 8 0 15 5 15 10 0 6 -7 10 -15 10 -8 0
-15 -4 -15 -10z"/>
<path d="M3628 1959 c-1 -28 -1 -54 2 -57 3 -4 53 -7 113 -7 l107 0 0 58 c0
31 -3 57 -7 57 -14 -1 -43 -27 -43 -39 0 -7 -26 -11 -76 -11 -56 0 -75 3 -72
13 3 6 24 15 49 18 24 3 35 7 24 8 -11 1 -36 4 -57 7 l-36 4 -4 -51z"/>
<path d="M3951 1723 c-11 -16 -35 -43 -53 -60 -18 -18 -28 -33 -23 -33 13 0
105 98 105 111 0 15 -8 10 -29 -18z"/>
<path d="M3791 1569 c-13 -11 -21 -22 -19 -25 3 -3 19 6 34 20 34 30 20 35
-15 5z"/>
<path d="M3685 1492 c-16 -9 -32 -18 -34 -19 -2 -2 -2 -6 2 -9 3 -3 23 6 44
20 42 29 34 35 -12 8z"/>
<path d="M3555 1420 c-18 -8 -17 -9 8 -9 15 -1 27 4 27 9 0 12 -8 12 -35 0z"/>
<path d="M3030 1396 c0 -14 -5 -28 -10 -31 -6 -4 -8 -11 -5 -16 13 -20 22 -7
23 31 1 22 0 40 -3 40 -3 0 -5 -11 -5 -24z"/>
<path d="M3500 1393 c-37 -7 -46 -20 -10 -15 17 2 33 8 36 13 3 5 4 8 2 8 -2
-1 -14 -4 -28 -6z"/>
<path d="M3400 1360 c-13 -9 -13 -10 0 -10 8 0 22 5 30 10 13 9 13 10 0 10 -8
0 -22 -5 -30 -10z"/>
<path d="M3323 1343 c-18 -2 -33 -8 -33 -14 0 -13 30 -10 65 6 31 14 25 15
-32 8z"/>
<path d="M1700 3766 c-14 -8 -44 -37 -67 -65 l-43 -49 108 -95 c59 -52 116
-104 126 -116 24 -26 38 -27 53 -2 11 17 8 22 -24 43 -20 13 -47 30 -60 38
-12 8 -25 22 -28 30 -4 8 -3 11 1 8 11 -12 44 11 64 45 30 49 26 91 -12 132
-38 40 -82 52 -118 31z m89 -60 c28 -30 24 -56 -18 -105 l-28 -35 -38 37 c-21
20 -42 37 -47 37 -20 0 -4 27 34 58 48 38 67 40 97 8z"/>
<path d="M2588 3758 c-32 -11 -58 -25 -58 -29 0 -5 17 -2 38 7 20 9 57 22 82
29 29 9 36 13 20 13 -14 0 -51 -9 -82 -20z"/>
<path d="M4255 3683 c-60 -52 -121 -103 -135 -113 -21 -15 -22 -20 -11 -34 20
-24 32 -20 81 29 25 24 49 44 53 45 8 0 39 26 99 83 23 22 36 14 69 -40 18
-29 19 -38 9 -63 -16 -40 -60 -57 -92 -36 -14 9 -28 13 -31 9 -4 -3 -7 1 -7 9
0 9 -6 21 -14 27 -11 9 -16 2 -29 -36 -36 -114 -39 -133 -22 -159 8 -13 19
-24 24 -24 5 0 12 30 16 68 4 37 12 70 18 74 6 3 27 -2 47 -12 35 -18 38 -18
76 -1 39 18 57 43 68 93 5 22 -4 40 -44 93 -27 36 -50 70 -50 76 0 18 -16 7
-125 -88z"/>
<path d="M2447 3701 c-26 -10 -53 -23 -59 -29 -7 -7 -16 -12 -20 -12 -12 0
-48 -33 -48 -44 0 -5 8 -2 18 6 9 9 55 34 102 57 88 42 91 52 7 22z"/>
<path d="M2244 3565 c-4 -8 -11 -15 -18 -15 -12 -1 -136 -112 -136 -123 0 -4
5 -7 10 -7 6 0 10 7 10 15 0 8 4 15 9 15 5 0 26 15 45 34 20 18 52 44 71 57
35 24 44 39 25 39 -6 0 -13 -7 -16 -15z"/>
<path d="M4554 3479 c-16 -11 -38 -24 -49 -30 -11 -5 -27 -14 -35 -19 -8 -6
-54 -32 -101 -58 -80 -44 -85 -49 -76 -70 13 -29 21 -28 79 14 40 28 52 33 64
23 8 -6 14 -16 14 -21 0 -24 44 -68 79 -79 51 -15 103 8 126 57 16 33 15 37
-4 74 -33 64 -46 85 -55 91 -5 4 -6 11 -2 17 12 20 -11 21 -40 1z m45 -95 c24
-53 17 -75 -30 -100 -30 -15 -31 -15 -65 21 -56 60 -59 72 -21 79 17 4 43 15
57 26 14 11 28 20 32 20 4 0 16 -21 27 -46z"/>
<path d="M1370 3301 c-14 -28 -13 -41 6 -41 8 0 77 -31 153 -70 144 -73 161
-79 161 -56 0 7 14 39 31 70 24 46 28 61 18 72 -20 25 -34 15 -54 -37 -11 -28
-25 -53 -31 -56 -6 -2 -51 17 -100 43 -49 26 -101 54 -116 61 -15 8 -30 18
-33 24 -10 15 -23 11 -35 -10z"/>
<path d="M4589 3153 c-36 -6 -108 -69 -125 -110 -29 -69 -5 -167 51 -211 94
-74 246 -40 285 64 27 70 0 167 -60 217 -28 24 -91 49 -115 45 -5 0 -22 -3
-36 -5z m118 -68 c114 -75 58 -245 -81 -245 -112 0 -169 94 -114 191 40 71
130 96 195 54z"/>
<path d="M1538 3075 c-2 -3 -60 -8 -129 -11 -97 -5 -126 -10 -136 -23 -7 -9
-11 -19 -10 -23 1 -3 65 -54 142 -113 77 -58 143 -111 146 -117 4 -6 12 -7 18
-4 14 9 15 56 1 56 -6 0 -16 5 -23 11 -7 5 -27 19 -45 30 l-33 19 20 27 c12
14 21 35 21 47 0 40 21 55 80 58 48 3 55 6 58 26 3 20 0 22 -51 22 -29 0 -56
-2 -59 -5z m-61 -62 c5 -14 -26 -83 -36 -83 -5 0 -17 8 -27 18 -10 9 -31 26
-48 37 -17 11 -32 25 -33 30 -2 13 140 10 144 -2z"/>
<path d="M1205 2749 c-4 -12 -3 -25 2 -29 4 -5 63 -11 131 -13 67 -2 122 -8
123 -12 0 -4 -46 -32 -103 -62 -161 -85 -170 -91 -166 -122 2 -14 9 -25 15
-24 7 2 57 -1 110 -7 54 -5 129 -11 166 -14 l68 -5 -4 26 c-4 30 -10 31 -201
36 -96 2 -112 13 -47 33 20 6 70 30 111 53 41 23 92 50 112 59 32 14 38 22 38
49 l0 31 -132 5 c-73 3 -152 8 -175 11 -36 5 -43 3 -48 -15z"/>
<path d="M4789 2705 c-3 -2 -64 -5 -137 -6 -117 -2 -132 -5 -138 -21 -11 -34
5 -41 82 -34 43 4 74 3 74 -2 0 -5 -17 -21 -37 -35 -70 -46 -113 -89 -113
-112 0 -38 11 -36 70 15 60 53 70 58 70 36 0 -8 12 -28 26 -45 22 -27 32 -31
74 -31 37 0 56 6 77 24 27 23 28 28 29 120 l1 96 -37 0 c-20 0 -39 -2 -41 -5z
m39 -88 c4 -45 -18 -84 -55 -98 -38 -14 -63 -2 -83 44 -27 60 -16 81 51 88 82
9 84 8 87 -34z"/>
<path d="M4520 2395 c0 -20 10 -30 51 -51 43 -21 50 -29 45 -47 -4 -12 -9 -41
-12 -64 -6 -40 -8 -42 -48 -48 -69 -11 -76 -15 -76 -42 0 -24 2 -24 43 -18 23
4 56 11 72 16 33 9 170 38 223 46 25 4 32 10 32 27 0 22 -34 46 -135 96 -27
14 -52 27 -55 30 -14 14 -70 50 -78 50 -5 0 -15 7 -22 15 -19 23 -40 18 -40
-10z m179 -119 c7 -8 26 -18 42 -21 16 -4 29 -11 29 -16 0 -5 1 -12 3 -16 1
-5 -16 -9 -38 -10 -21 -1 -52 -8 -67 -14 -36 -15 -45 -6 -30 26 7 14 12 35 12
45 0 24 32 27 49 6z"/>
<path d="M1340 2369 c-138 -41 -162 -244 -38 -326 49 -33 133 -38 185 -10 84
45 118 161 71 241 -48 82 -134 119 -218 95z m149 -68 c40 -29 58 -89 42 -142
-12 -41 -58 -85 -97 -95 -87 -22 -174 38 -174 119 0 116 134 185 229 118z"/>
<path d="M4452 2058 c-30 -30 -12 -43 121 -85 73 -24 138 -43 145 -43 14 0 16
-26 2 -35 -16 -10 -11 -42 7 -49 23 -9 40 14 48 66 4 22 13 52 21 66 19 36 18
49 -5 55 -23 6 -31 0 -31 -23 0 -9 -6 -25 -14 -35 -11 -15 -17 -17 -27 -8 -8
6 -63 28 -124 48 -60 20 -114 40 -120 45 -7 6 -16 5 -23 -2z"/>
<path d="M1570 1975 c-136 -57 -237 -95 -250 -95 -8 0 -10 -8 -6 -22 3 -13 6
-26 6 -30 0 -3 28 5 63 18 34 14 110 43 168 65 105 40 106 41 95 65 -6 13 -13
23 -16 23 -3 -1 -30 -12 -60 -24z"/>
<path d="M4386 1894 c-3 -9 -6 -18 -6 -20 0 -3 35 -21 78 -40 42 -20 114 -54
160 -76 46 -22 85 -38 86 -36 2 1 6 12 10 23 5 18 -4 25 -62 50 -37 16 -107
48 -156 72 -49 24 -92 43 -96 43 -4 0 -11 -7 -14 -16z"/>
<path d="M1565 1785 c-66 -35 -121 -68 -123 -74 -6 -19 -31 1 -37 30 -6 28
-28 39 -40 19 -10 -17 68 -170 87 -170 25 0 34 21 15 35 -9 6 -21 24 -27 40
-9 23 -8 26 3 17 10 -9 43 4 143 54 71 36 129 69 128 75 -1 5 -2 16 -2 24 -3
23 -18 18 -147 -50z"/>
<path d="M1721 1723 c-7 -15 -50 -85 -97 -155 -74 -113 -83 -131 -72 -148 7
-11 15 -20 18 -20 3 0 68 18 145 40 76 22 145 40 151 40 7 0 25 5 40 10 l28
11 -22 21 c-20 20 -24 21 -64 8 -24 -8 -47 -20 -51 -27 -10 -17 -27 -7 -27 16
0 9 -16 34 -35 55 l-35 39 35 38 c38 42 40 50 25 80 -14 26 -25 24 -39 -8z
m-3 -183 c29 -39 28 -46 -10 -54 -42 -8 -88 -29 -88 -38 0 -5 -7 -8 -15 -8 -8
0 -15 7 -15 15 0 8 5 15 10 15 6 0 26 23 46 50 20 28 39 50 43 50 4 0 17 -13
29 -30z"/>
<path d="M4345 1735 c-83 -29 -137 -124 -120 -207 33 -154 237 -201 326 -76
36 50 39 143 7 197 -14 23 -28 38 -31 34 -4 -3 -7 -1 -7 5 0 16 -60 49 -100
56 -20 3 -52 0 -75 -9z m115 -53 c72 -36 101 -123 60 -189 -25 -42 -93 -77
-133 -69 -114 23 -162 143 -89 224 46 50 104 62 162 34z"/>
<path d="M1841 1339 c-111 -128 -113 -131 -95 -149 19 -19 21 -17 89 66 121
147 109 138 101 69 -4 -33 -11 -76 -16 -95 -5 -19 -12 -65 -15 -103 -7 -67 2
-97 29 -97 6 0 40 35 76 77 36 42 87 101 113 129 l48 53 -20 20 -20 20 -24
-32 c-14 -18 -33 -41 -43 -52 -55 -59 -104 -125 -104 -139 0 -9 -4 -16 -9 -16
-17 0 -19 28 -4 71 8 24 20 87 28 139 7 52 16 103 20 113 5 12 1 24 -13 38
-12 10 -22 19 -24 19 -2 0 -54 -59 -117 -131z"/>
<path d="M4090 1455 c-11 -13 -2 -27 51 -88 35 -39 74 -82 86 -94 21 -20 31
-43 18 -43 -5 0 -184 56 -251 79 -48 17 -53 17 -73 2 l-22 -17 36 -39 c19 -22
70 -81 113 -132 73 -88 106 -110 118 -79 3 7 -10 29 -28 48 -18 19 -62 64 -97
101 -73 76 -69 79 52 42 45 -15 111 -35 146 -46 58 -18 65 -18 88 -4 27 18 21
37 -10 33 -17 -2 -23 3 -25 22 -2 13 -9 29 -16 35 -7 5 -32 35 -57 65 -24 30
-49 59 -56 63 -7 4 -20 21 -28 37 -17 34 -27 37 -45 15z m-100 -170 c0 -8 -4
-15 -10 -15 -5 0 -10 7 -10 15 0 8 5 15 10 15 6 0 10 -7 10 -15z"/>
<path d="M4593 1313 c-17 -21 -29 -40 -27 -43 8 -7 66 59 62 70 -2 6 -17 -7
-35 -27z"/>
<path d="M4518 1223 c-18 -21 -63 -68 -101 -105 -38 -38 -63 -68 -57 -68 13 0
180 167 180 181 0 5 7 9 15 9 8 0 15 5 15 10 0 20 -20 9 -52 -27z"/>
<path d="M2547 1085 c-3 -19 2 -26 26 -34 18 -7 27 -16 24 -25 -3 -7 -15 -56
-27 -107 -12 -52 -28 -112 -36 -134 -19 -54 -19 -52 22 -57 l35 -4 -5 50 c-4
36 -3 44 3 26 l9 -25 1 27 c1 15 6 30 12 34 7 4 9 24 6 57 -4 27 -3 47 0 43 7
-7 43 98 43 127 0 10 -8 17 -20 17 -11 0 -36 6 -54 14 -33 14 -34 13 -39 -9z"/>
<path d="M3482 1101 c-19 -5 -34 -30 -73 -116 -68 -152 -64 -206 18 -240 48
-20 96 -19 142 5 106 53 108 166 5 215 -42 20 -98 14 -114 -13 -8 -15 -11 -15
-19 -2 -8 11 -4 22 13 40 26 28 60 95 54 108 -1 4 -14 6 -26 3z m73 -177 c8
-4 22 -19 31 -35 13 -25 13 -33 0 -57 -27 -52 -104 -72 -156 -41 -40 25 -39
58 4 103 26 28 41 36 69 36 19 0 43 -3 52 -6z"/>
<path d="M2187 1042 c-25 -28 -20 -57 14 -86 71 -60 152 3 93 73 -30 36 -81
42 -107 13z m93 -27 c24 -29 -4 -36 -34 -10 l-29 25 25 0 c14 0 31 -7 38 -15z"/>
<path d="M3778 1039 c-20 -15 -28 -30 -28 -51 0 -56 64 -77 114 -37 31 25 34
61 6 89 -25 25 -57 25 -92 -1z m89 -25 c2 -6 -8 -16 -22 -22 -22 -10 -25 -9
-25 7 0 28 39 40 47 15z"/>
<path d="M2800 1033 c-54 -20 -89 -92 -70 -148 13 -38 63 -75 103 -75 43 0 40
-16 -13 -63 -27 -25 -50 -48 -50 -51 0 -3 17 -6 39 -6 35 0 44 6 98 68 32 37
67 78 76 92 35 50 11 131 -50 171 -27 18 -98 25 -133 12z m110 -48 c57 -30 53
-105 -8 -131 -30 -12 -44 -13 -74 -4 -64 19 -77 75 -28 121 33 32 66 37 110
14z"/>
<path d="M3115 1031 c-53 -22 -72 -83 -27 -89 16 -2 25 3 31 21 22 57 101 43
101 -18 0 -26 -25 -45 -60 -45 -16 0 -21 -5 -18 -22 2 -19 11 -24 45 -29 23
-3 48 -11 57 -18 37 -31 2 -93 -59 -104 -42 -7 -95 16 -95 42 0 16 -6 21 -24
21 -33 0 -41 -16 -22 -45 22 -33 56 -55 98 -61 86 -14 186 49 174 110 -8 36
-43 76 -67 76 -29 0 -32 19 -6 29 30 11 41 27 27 36 -5 3 -10 19 -10 35 0 50
-84 85 -145 61z"/>
<path d="M4310 1015 c-23 -17 -28 -25 -17 -25 9 0 17 5 17 10 0 6 6 10 14 10
8 0 16 7 20 15 7 20 6 19 -34 -10z"/>
<path d="M4260 973 c-8 -4 -28 -19 -45 -35 -16 -15 -34 -28 -38 -28 -5 0 -20
-9 -34 -20 -41 -32 -8 -23 44 13 46 31 103 78 93 76 -3 0 -12 -3 -20 -6z"/>
<path d="M3938 764 c-38 -20 -35 -23 7 -10 19 6 35 14 35 18 0 11 -11 9 -42
-8z"/>
<path d="M3784 695 c-28 -13 -70 -28 -92 -35 -23 -6 -42 -15 -42 -20 0 -6 24
-1 53 11 28 11 57 22 62 23 29 8 98 45 85 45 -8 0 -38 -10 -66 -24z"/>
<path d="M3493 603 c-18 -2 -33 -8 -33 -12 0 -8 99 4 108 14 6 5 -20 5 -75 -2z"/>
<path d="M3327 572 c-20 -2 -35 -7 -32 -11 6 -10 96 -2 108 9 9 8 -8 8 -76 2z"/>
<path d="M2660 4560 l-35 -7 43 -2 c23 0 42 4 42 9 0 6 -3 9 -7 9 -5 -1 -24
-5 -43 -9z"/>
<path d="M2555 4543 c-11 -3 -24 -9 -30 -14 -10 -10 45 -2 80 12 18 7 17 8 -5
7 -14 0 -34 -2 -45 -5z"/>
<path d="M2433 4510 c-13 -5 -23 -12 -23 -14 0 -8 64 5 75 15 12 12 -23 11
-52 -1z"/>
<path d="M2345 4475 c-40 -18 -16 -19 26 0 19 8 27 14 19 14 -8 0 -28 -6 -45
-14z"/>
<path d="M2251 4444 c-19 -8 -32 -17 -28 -20 3 -3 13 -1 24 4 10 6 29 15 43
20 14 6 18 11 10 11 -8 0 -30 -6 -49 -15z"/>
<path d="M2117 4384 c-16 -9 -26 -18 -23 -22 4 -3 12 0 18 6 7 7 20 12 29 12
10 0 21 5 24 10 9 15 -16 11 -48 -6z"/>
<path d="M1952 4293 c-40 -25 -71 -47 -69 -50 7 -6 91 39 100 54 4 7 13 13 20
13 7 0 21 7 31 15 44 33 -12 11 -82 -32z"/>
<path d="M1739 4141 c-13 -11 -19 -20 -14 -20 14 0 50 28 43 34 -3 3 -16 -3
-29 -14z"/>
<path d="M1686 4094 c-11 -7 -17 -17 -13 -20 3 -4 14 1 23 10 21 22 15 28 -10
10z"/>
<path d="M1621 4040 c-18 -17 -26 -30 -19 -30 14 0 63 48 56 55 -2 2 -19 -9
-37 -25z"/>
<path d="M1435 3844 c-9 -14 -25 -34 -36 -45 -10 -10 -19 -25 -19 -31 1 -17
80 73 80 90 0 18 -6 15 -25 -14z"/>
</g>
</svg>
